<?xml version="1.0" encoding="UTF-8" standalone="no"?>
<svg
   xmlns:dc="http://purl.org/dc/elements/1.1/"
   xmlns:cc="http://creativecommons.org/ns#"
   xmlns:rdf="http://www.w3.org/1999/02/22-rdf-syntax-ns#"
   xmlns:svg="http://www.w3.org/2000/svg"
   xmlns="http://www.w3.org/2000/svg"
   viewBox="0 0 1219.5333 615.49335"
   height="64"
   width="126.80905683221437"
   xml:space="preserve"
   id="svg2"
   version="1.1"><metadata
     id="metadata8"><rdf:RDF><cc:Work
         rdf:about=""><dc:format>image/svg+xml</dc:format><dc:type
           rdf:resource="http://purl.org/dc/dcmitype/StillImage" /></cc:Work></rdf:RDF></metadata><defs
     id="defs6" /><g
     transform="matrix(1.3333333,0,0,-1.3333333,0,615.49333)"
     id="g10"><g
       transform="scale(0.1)"
       id="g12"><path
         id="path14"
         style="fill:#5ccaf5;fill-opacity:1;fill-rule:evenodd;stroke:none"
         d="m 6801.24,1868.86 c 207.87,-0.94 376.88,-171.02 375.43,-377.49 -1.54,-205.24 -174.77,-375.71 -380.39,-374.49 -206,1.45 -377.44,174.96 -375.01,379.55 2.53,208.76 170.42,373.42 379.97,372.43" /><path
         id="path16"
         style="fill:#5ccaf5;fill-opacity:1;fill-rule:evenodd;stroke:none"
         d="m 5959.12,2687.25 c 203.47,-2.86 369.16,-170.7 369.44,-374.31 0.28,-207.87 -178.37,-381.65 -387.09,-376.55 -206.89,4.91 -370.79,176.97 -367.7,385.68 3.09,207.78 172.29,368.03 385.35,365.18" /><path
         id="path18"
         style="fill:#5ccaf5;fill-opacity:1;fill-rule:evenodd;stroke:none"
         d="m 5953.61,1116.89 c -207.07,-1.64 -375.48,164.18 -379.74,373.97 -4.16,206.56 163.91,376.56 373.42,377.68 209.32,1.08 377.4,-162.92 381.14,-371.68 3.61,-203.19 -169.29,-378.38 -374.82,-379.97" /><path
         id="path20"
         style="fill:#5ccaf5;fill-opacity:1;fill-rule:evenodd;stroke:none"
         d="m 8025.25,2317.24 c 1.31,-209.83 -163.11,-378.8 -371.22,-380.95 -208.05,-2.34 -378.14,164.8 -379.45,372.57 -1.22,211.48 161.47,377.4 371.03,378.43 211.94,1.17 378.14,-160.96 379.64,-370.05" /><path
         id="path22"
         style="fill:#5ccaf5;fill-opacity:1;fill-rule:evenodd;stroke:none"
         d="m 7174.21,3121.01 c -0.98,-209.64 -167.32,-371.86 -379.41,-370.18 -208.52,1.59 -373.22,170.46 -371.07,380.16 2.15,206.89 174.35,375.1 380.81,372.1 208.53,-3.27 370.61,-170.69 369.67,-382.08" /><path
         id="path24"
         style="fill:#5ccaf5;fill-opacity:1;fill-rule:evenodd;stroke:none"
         d="m 8025.25,3126.44 c 0.19,-210.12 -165.08,-375.71 -375.06,-375.76 -209.97,-0.19 -375.47,165.08 -375.61,375.11 -0.05,209.08 166.85,377.11 374.91,377.34 208.06,0.14 375.57,-167.7 375.76,-376.69" /><path
         id="path26"
         style="fill:#a3a1a1;fill-opacity:1;fill-rule:nonzero;stroke:none"
         d="m 2878.73,1349.72 c -167.16,0 -293.22,137.56 -293.22,319.98 0,182.41 126.06,319.96 293.22,319.96 172.48,0 297.66,-134.56 297.66,-319.96 0,-185.41 -125.18,-319.98 -297.66,-319.98 z m 0,876.54 c -317.29,0 -556.56,-239.27 -556.56,-556.56 0,-317.3 239.27,-556.57 556.56,-556.57 160.42,0 305.39,58.93 408.2,165.92 98.55,102.56 152.82,241.29 152.82,390.65 0,149.35 -54.27,288.08 -152.82,390.64 -102.81,106.99 -247.78,165.92 -408.2,165.92" /><path
         id="path28"
         style="fill:#a3a1a1;fill-opacity:1;fill-rule:nonzero;stroke:none"
         d="m 3696.67,2651.44 c -51.12,0 -84.16,-26.48 -84.16,-67.46 v -1433.56 -10.01 h 10.02 123.25 c 68.24,0 115.9,46.45 115.9,112.98 v 541.19 h 465.57 c 68.47,0 116.28,46.48 116.28,113.05 v 39.49 2.33 75.08 10.01 h -10.01 -79.32 -492.52 v 376.96 h 595.87 c 52.59,0 89.32,35.81 89.32,87.07 v 142.86 10.01 h -10.01 -840.19" /><path
         id="path30"
         style="fill:#a3a1a1;fill-opacity:1;fill-rule:nonzero;stroke:none"
         d="m 4824.48,2188.31 c -60.51,0 -88.07,-45.4 -88.07,-87.58 v -950.2 -10.12 h 10.12 156.38 c 30.45,0 88.03,18.35 88.03,87.83 v 949.95 10.12 h -10.12 -156.34" /><path
         id="path32"
         style="fill:#a3a1a1;fill-opacity:1;fill-rule:nonzero;stroke:none"
         d="m 4865.1,2359.91 c 89.18,0 161.73,71.7 161.73,159.84 0,89.19 -72.55,161.75 -161.73,161.75 -88.14,0 -159.85,-72.56 -159.85,-161.75 0,-88.14 71.71,-159.84 159.85,-159.84" /><path
         id="path34"
         style="fill:#5ccaf5;fill-opacity:1;fill-rule:evenodd;stroke:none"
         d="m 5949.97,2859.95 c -152.43,0.09 -270.18,117.53 -269.42,268.72 0.7,147.48 119.5,266.24 267.23,267.13 150.46,0.89 273.64,-119.46 273.96,-267.76 0.32,-149.35 -120.2,-268.22 -271.77,-268.09 z m -3.54,643.17 c -206.91,-1.24 -373.29,-167.59 -374.27,-374.13 -1.07,-211.75 163.85,-376.23 377.34,-376.36 212.28,-0.18 381.07,166.3 380.63,375.47 -0.44,207.7 -172.97,376.27 -383.7,375.02" /><path
         id="path36"
         style="fill:#5ccaf5;fill-opacity:1;fill-rule:evenodd;stroke:none"
         d="m 7648.74,1224.2 c -152.43,0.09 -270.18,117.53 -269.42,268.72 0.7,147.47 119.5,266.24 267.23,267.13 150.46,0.89 273.65,-119.47 273.96,-267.77 0.32,-149.35 -120.2,-268.21 -271.77,-268.08 z m -3.53,643.17 c -206.91,-1.24 -373.3,-167.59 -374.28,-374.14 -1.06,-211.75 163.86,-376.22 377.34,-376.36 212.29,-0.17 381.08,166.3 380.63,375.48 -0.44,207.7 -172.96,376.27 -383.69,375.02" /><path
         id="path38"
         style="fill:#a3a1a1;fill-opacity:1;fill-rule:evenodd;stroke:none"
         d="m 6797.81,2049.11 c -149.44,0.09 -264.88,115.22 -264.13,263.45 0.68,144.58 117.15,261.02 261.99,261.89 147.51,0.88 268.28,-117.12 268.58,-262.51 0.32,-146.42 -117.84,-262.96 -266.44,-262.83 z M 7177.95,2312 c -0.08,38.95 -6.22,76.52 -17.52,111.85 -26.36,82.44 -80.86,152.7 -152.28,199.83 -10.21,6.73 -20.75,13 -31.62,18.75 -5.43,2.88 -10.93,5.64 -16.52,8.26 -11.16,5.24 -22.62,9.97 -34.35,14.15 -23.45,8.35 -47.96,14.49 -73.26,18.17 -18.97,2.76 -38.39,4.13 -58.15,4.02 -32.33,-0.2 -63.67,-4.42 -93.54,-12.2 -23.9,-6.23 -46.86,-14.72 -68.64,-25.25 -59.89,-28.96 -110.85,-73.27 -147.79,-127.87 -3.36,-4.96 -6.6,-10.01 -9.73,-15.14 -34.35,-56.43 -54.23,-122.68 -54.57,-193.68 v 0 c -1.06,-211.75 163.86,-376.23 377.34,-376.36 212.29,-0.18 381.08,166.3 380.63,375.47 v 0" /><path
         id="path40"
         style="fill:#a3a1a1;fill-opacity:1;fill-rule:nonzero;stroke:none"
         d="m 1653.67,2049.3 -4.56,1.58 c -105.03,37.33 -212.47,91 -212.47,205.85 0,48.67 16.5,88.88 49.02,119.53 38.63,36.38 97.78,57.67 166.53,56.42 232.27,-4.26 215.61,-242.23 215.61,-242.23 l 85.48,-0.31 86.49,-0.32 c 45.14,-0.15 86.22,28.88 89.89,75.51 0.04,25.96 -14.77,75.94 -15.51,78.41 -2.72,9.04 -83.29,318.19 -468.37,324.62 -143.39,2.4 -276.51,-51.2 -365.17,-140.47 -72.91,-73.4 -111.45,-167.18 -111.45,-271.2 0,-305.86 244.52,-389.48 503.39,-478.01 97.79,-33.71 231.76,-79.9 231.76,-222.55 0,-52.65 -18.43,-99.74 -53.3,-136.17 -43.3,-45.23 -110.28,-71.17 -183.75,-71.17 -171.44,0 -282.21,113.41 -282.21,288.93 v 10.12 h -10.12 -165.07 -0.83 l -0.26,-0.04 h -81.07 -10.12 v -10.12 c 0,-24.89 1.5,-49.42 4.57,-74.97 l 0.07,-1.66 0.35,-2.17 c 2.19,-16.79 4.88,-32.64 8.13,-47.83 l 0.77,-3.45 0.39,-1.71 c 3.56,-15.9 7.65,-31.12 12.15,-45.24 l 0.65,-1.92 0.43,-1.27 c 10.03,-30.8 22.73,-60.16 37.75,-87.26 7.15,-12.89 14.92,-25.42 23.84,-38.45 l 0.71,-1.05 1.08,-1.6 c 7.91,-11.38 16.68,-22.84 26.06,-34.03 l 0.85,-1.02 1.9,-2.26 c 9.05,-10.6 18.68,-20.93 28.63,-30.7 l 2.15,-2.08 0.93,-0.9 c 10.33,-9.96 20.95,-19.36 31.56,-27.94 l 1.45,-1.15 0.95,-0.74 c 11.71,-9.36 23.52,-17.99 35.1,-25.68 24.7,-16.36 51.17,-30.71 78.93,-42.81 l 1.97,-0.89 c 12.61,-5.44 26.1,-10.61 40.1,-15.36 l 1.41,-0.49 2.34,-0.79 c 13.17,-4.37 26.87,-8.34 40.73,-11.79 l 4.36,-1.06 c 14.03,-3.38 28.15,-6.23 41.97,-8.48 l 2.29,-0.35 1.54,-0.23 c 15.02,-2.35 29.8,-4.11 43.91,-5.24 l 0.12,-0.01 1.06,-0.07 c 16.94,-1.29 32.08,-1.9 46.96,-1.9 164.95,0 308.27,53.6 403.55,150.94 80.13,81.83 122.49,192.24 122.49,319.28 0,285.6 -287.28,385.59 -518.11,465.95" /></g></g></svg>
